{
	"asset":{
		"version":"2.0",
		"generator":"Created using the official Cinema 4D glTF Exporter 1.000x284978"
	},
	"buffers":[{
		"uri":"data:application/octet-stream;base64,",
		"byteLength":19076
	},
	{
		"uri":"data:application/octet-stream;base64,",
		"byteLength":40836
	},
	{
		"uri":"data:application/octet-stream;base64,",
		"byteLength":4200
	},
	{
		"uri":"data:application/octet-stream;base64,",
		"byteLength":6848
	},
	{
		"uri":"data:application/octet-stream;base64,",
		"byteLength":44332
	},
	{
		"uri":"data:application/octet-stream;base64,",
		"byteLength":2520
	},
	{
		"uri":"data:application/octet-stream;base64,",
		"byteLength":23520
	},
	{
		"uri":"data:application/octet-stream;base64,",
		"byteLength":8304
	},
	{
		"uri":"data:application/octet-stream;base64,",
		"byteLength":2648
	},
	{
		"uri":"data:application/octet-stream;base64,",
		"byteLength":1588
	},
	{
		"uri":"data:application/octet-stream;base64,",
		"byteLength":35948
	}],
	"scenes":[{
		"nodes":[0]
	}],
	"meshes":[{
		"name":"FLOOR.1-Mat",
		"primitives":[{
			"attributes":{
				"POSITION":1,
				"NORMAL":2,
				"TEXCOORD_0":3
			},
			"indices":0,
			"material":0
		}]
	},
	{
		"name":"FLOOR.1-Mat.4",
		"primitives":[{
			"attributes":{
				"POSITION":5,
				"NORMAL":6,
				"TEXCOORD_0":7
			},
			"indices":4,
			"material":1
		}]
	},
	{
		"name":"FLOOR.1-Mat.3",
		"primitives":[{
			"attributes":{
				"POSITION":9,
				"NORMAL":10,
				"TEXCOORD_0":11
			},
			"indices":8,
			"material":2
		}]
	},
	{
		"name":"FLOOR.1-Mat.5",
		"primitives":[{
			"attributes":{
				"POSITION":13,
				"NORMAL":14,
				"TEXCOORD_0":15
			},
			"indices":12,
			"material":3
		}]
	},
	{
		"name":"FLOOR.1-Mat",
		"primitives":[{
			"attributes":{
				"POSITION":17,
				"NORMAL":18,
				"TEXCOORD_0":19
			},
			"indices":16,
			"material":0
		}]
	},
	{
		"name":"FLOOR.1-Mat.2",
		"primitives":[{
			"attributes":{
				"POSITION":21,
				"NORMAL":22,
				"TEXCOORD_0":23
			},
			"indices":20,
			"material":4
		}]
	},
	{
		"name":"FLOOR.1-Mat.1",
		"primitives":[{
			"attributes":{
				"POSITION":25,
				"NORMAL":26,
				"TEXCOORD_0":27
			},
			"indices":24,
			"material":5
		}]
	},
	{
		"name":"FLOOR.1-Mat.5",
		"primitives":[{
			"attributes":{
				"POSITION":29,
				"NORMAL":30,
				"TEXCOORD_0":31
			},
			"indices":28,
			"material":3
		}]
	},
	{
		"name":"FLOOR.1-Mat",
		"primitives":[{
			"attributes":{
				"POSITION":33,
				"NORMAL":34,
				"TEXCOORD_0":35
			},
			"indices":32,
			"material":0
		}]
	},
	{
		"name":"FLOOR.1-Mat.6",
		"primitives":[{
			"attributes":{
				"POSITION":37,
				"NORMAL":38,
				"TEXCOORD_0":39
			},
			"indices":36,
			"material":6
		}]
	},
	{
		"name":"FLOOR.1-Mat.4",
		"primitives":[{
			"attributes":{
				"POSITION":41,
				"NORMAL":42,
				"TEXCOORD_0":43
			},
			"indices":40,
			"material":1
		}]
	}],
	"nodes":[{
		"name":"FLOOR.1",
		"translation":[1937.2816162109376,
		1229.953125,
		1946.1619873046876],
		"rotation":[0.0,
		0.0,
		0.0,
		-1.0],
		"scale":[1.0,
		1.0,
		1.0],
		"children":[1,
		2,
		3,
		4,
		5,
		6,
		7,
		8,
		9,
		10,
		11]
	},
	{
		"name":"FLOOR.1-Mat",
		"mesh":0
	},
	{
		"name":"FLOOR.1-Mat.4",
		"mesh":1
	},
	{
		"name":"FLOOR.1-Mat.3",
		"mesh":2
	},
	{
		"name":"FLOOR.1-Mat.5",
		"mesh":3
	},
	{
		"name":"FLOOR.1-Mat",
		"mesh":4
	},
	{
		"name":"FLOOR.1-Mat.2",
		"mesh":5
	},
	{
		"name":"FLOOR.1-Mat.1",
		"mesh":6
	},
	{
		"name":"FLOOR.1-Mat.5",
		"mesh":7
	},
	{
		"name":"FLOOR.1-Mat",
		"mesh":8
	},
	{
		"name":"FLOOR.1-Mat.6",
		"mesh":9
	},
	{
		"name":"FLOOR.1-Mat.4",
		"mesh":10
	}],
	"bufferViews":[{
		"buffer":0,
		"byteOffset":0,
		"byteLength":1956,
		"target":34963
	},
	{
		"buffer":0,
		"byteOffset":1956,
		"byteStride":32,
		"byteLength":17120,
		"target":34962
	},
	{
		"buffer":1,
		"byteOffset":0,
		"byteLength":6276,
		"target":34963
	},
	{
		"buffer":1,
		"byteOffset":6276,
		"byteStride":32,
		"byteLength":34560,
		"target":34962
	},
	{
		"buffer":2,
		"byteOffset":0,
		"byteLength":552,
		"target":34963
	},
	{
		"buffer":2,
		"byteOffset":552,
		"byteStride":32,
		"byteLength":3648,
		"target":34962
	},
	{
		"buffer":3,
		"byteOffset":0,
		"byteLength":960,
		"target":34963
	},
	{
		"buffer":3,
		"byteOffset":960,
		"byteStride":32,
		"byteLength":5888,
		"target":34962
	},
	{
		"buffer":4,
		"byteOffset":0,
		"byteLength":8106,
		"target":34963
	},
	{
		"buffer":4,
		"byteOffset":8108,
		"byteStride":32,
		"byteLength":36224,
		"target":34962
	},
	{
		"buffer":5,
		"byteOffset":0,
		"byteLength":216,
		"target":34963
	},
	{
		"buffer":5,
		"byteOffset":216,
		"byteStride":32,
		"byteLength":2304,
		"target":34962
	},
	{
		"buffer":6,
		"byteOffset":0,
		"byteLength":2016,
		"target":34963
	},
	{
		"buffer":6,
		"byteOffset":2016,
		"byteStride":32,
		"byteLength":21504,
		"target":34962
	},
	{
		"buffer":7,
		"byteOffset":0,
		"byteLength":1296,
		"target":34963
	},
	{
		"buffer":7,
		"byteOffset":1296,
		"byteStride":32,
		"byteLength":7008,
		"target":34962
	},
	{
		"buffer":8,
		"byteOffset":0,
		"byteLength":408,
		"target":34963
	},
	{
		"buffer":8,
		"byteOffset":408,
		"byteStride":32,
		"byteLength":2240,
		"target":34962
	},
	{
		"buffer":9,
		"byteOffset":0,
		"byteLength":180,
		"target":34963
	},
	{
		"buffer":9,
		"byteOffset":180,
		"byteStride":32,
		"byteLength":1408,
		"target":34962
	},
	{
		"buffer":10,
		"byteOffset":0,
		"byteLength":5484,
		"target":34963
	},
	{
		"buffer":10,
		"byteOffset":5484,
		"byteStride":32,
		"byteLength":30464,
		"target":34962
	}],
	"accessors":[{
		"bufferView":0,
		"componentType":5123,
		"type":"SCALAR",
		"min":[0],
		"count":978,
		"byteOffset":0,
		"max":[534]
	},
	{
		"bufferView":1,
		"componentType":5126,
		"type":"VEC3",
		"min":[-2464.71728515625,
		-89.77345275878906,
		-1581.216064453125],
		"count":535,
		"byteOffset":0,
		"max":[2377.11328125,
		1146.3953857421876,
		3328.760009765625]
	},
	{
		"bufferView":1,
		"componentType":5126,
		"type":"VEC3",
		"min":[-1.0,
		-1.0,
		-1.0],
		"count":535,
		"byteOffset":12,
		"max":[1.0,
		1.0,
		1.0]
	},
	{
		"bufferView":1,
		"componentType":5126,
		"type":"VEC2",
		"min":[0.0,
		0.0],
		"count":535,
		"byteOffset":24,
		"max":[1.0,
		1.0]
	},
	{
		"bufferView":2,
		"componentType":5123,
		"type":"SCALAR",
		"min":[0],
		"count":3138,
		"byteOffset":0,
		"max":[1079]
	},
	{
		"bufferView":3,
		"componentType":5126,
		"type":"VEC3",
		"min":[-2454.669189453125,
		-1291.252197265625,
		-3290.412841796875],
		"count":1080,
		"byteOffset":0,
		"max":[2070.24462890625,
		-83.25298309326172,
		3205.605224609375]
	},
	{
		"bufferView":3,
		"componentType":5126,
		"type":"VEC3",
		"min":[-0.9999688267707825,
		-1.0,
		-1.0],
		"count":1080,
		"byteOffset":12,
		"max":[1.0,
		1.0,
		1.0]
	},
	{
		"bufferView":3,
		"componentType":5126,
		"type":"VEC2",
		"min":[0.0,
		0.0],
		"count":1080,
		"byteOffset":24,
		"max":[1.0,
		1.0]
	},
	{
		"bufferView":4,
		"componentType":5123,
		"type":"SCALAR",
		"min":[0],
		"count":276,
		"byteOffset":0,
		"max":[113]
	},
	{
		"bufferView":5,
		"componentType":5126,
		"type":"VEC3",
		"min":[-2353.755126953125,
		-1082.143798828125,
		-3217.01171875],
		"count":114,
		"byteOffset":0,
		"max":[-523.4339599609375,
		-92.75774383544922,
		-1593.01171875]
	},
	{
		"bufferView":5,
		"componentType":5126,
		"type":"VEC3",
		"min":[-1.0,
		-1.0,
		-1.0],
		"count":114,
		"byteOffset":12,
		"max":[1.0,
		1.0,
		1.0]
	},
	{
		"bufferView":5,
		"componentType":5126,
		"type":"VEC2",
		"min":[0.0,
		0.0],
		"count":114,
		"byteOffset":24,
		"max":[1.0,
		1.0]
	},
	{
		"bufferView":6,
		"componentType":5123,
		"type":"SCALAR",
		"min":[0],
		"count":480,
		"byteOffset":0,
		"max":[183]
	},
	{
		"bufferView":7,
		"componentType":5126,
		"type":"VEC3",
		"min":[-2624.885498046875,
		-1229.953125,
		-3592.560302734375],
		"count":184,
		"byteOffset":0,
		"max":[2624.885498046875,
		-53.97154235839844,
		3592.560302734375]
	},
	{
		"bufferView":7,
		"componentType":5126,
		"type":"VEC3",
		"min":[-0.9999688267707825,
		-1.0,
		-1.0],
		"count":184,
		"byteOffset":12,
		"max":[1.0,
		1.0,
		0.9999688267707825]
	},
	{
		"bufferView":7,
		"componentType":5126,
		"type":"VEC2",
		"min":[0.0,
		0.0],
		"count":184,
		"byteOffset":24,
		"max":[1.0,
		1.0]
	},
	{
		"bufferView":8,
		"componentType":5123,
		"type":"SCALAR",
		"min":[0],
		"count":4053,
		"byteOffset":0,
		"max":[1131]
	},
	{
		"bufferView":9,
		"componentType":5126,
		"type":"VEC3",
		"min":[-2445.551513671875,
		-1083.681396484375,
		-3464.6943359375],
		"count":1132,
		"byteOffset":0,
		"max":[2366.135498046875,
		1291.252197265625,
		3282.904541015625]
	},
	{
		"bufferView":9,
		"componentType":5126,
		"type":"VEC3",
		"min":[-1.0,
		-1.0,
		-1.0],
		"count":1132,
		"byteOffset":12,
		"max":[1.0,
		1.0,
		1.0]
	},
	{
		"bufferView":9,
		"componentType":5126,
		"type":"VEC2",
		"min":[0.0,
		0.0],
		"count":1132,
		"byteOffset":24,
		"max":[1.0,
		1.0]
	},
	{
		"bufferView":10,
		"componentType":5123,
		"type":"SCALAR",
		"min":[0],
		"count":108,
		"byteOffset":0,
		"max":[71]
	},
	{
		"bufferView":11,
		"componentType":5126,
		"type":"VEC3",
		"min":[298.3725891113281,
		-1090.600341796875,
		-1012.5514526367188],
		"count":72,
		"byteOffset":0,
		"max":[1995.3187255859376,
		-87.55290985107422,
		1465.94384765625]
	},
	{
		"bufferView":11,
		"componentType":5126,
		"type":"VEC3",
		"min":[-1.0,
		-1.0,
		-1.0],
		"count":72,
		"byteOffset":12,
		"max":[1.0,
		1.0,
		1.0]
	},
	{
		"bufferView":11,
		"componentType":5126,
		"type":"VEC2",
		"min":[0.0,
		0.0],
		"count":72,
		"byteOffset":24,
		"max":[1.0,
		1.0]
	},
	{
		"bufferView":12,
		"componentType":5123,
		"type":"SCALAR",
		"min":[0],
		"count":1008,
		"byteOffset":0,
		"max":[671]
	},
	{
		"bufferView":13,
		"componentType":5126,
		"type":"VEC3",
		"min":[-2435.982177734375,
		-1076.0047607421876,
		-883.5824584960938],
		"count":672,
		"byteOffset":0,
		"max":[-1396.6845703125,
		662.6377563476563,
		2501.206298828125]
	},
	{
		"bufferView":13,
		"componentType":5126,
		"type":"VEC3",
		"min":[-1.0,
		-1.0,
		-1.0],
		"count":672,
		"byteOffset":12,
		"max":[1.0,
		1.0,
		1.0]
	},
	{
		"bufferView":13,
		"componentType":5126,
		"type":"VEC2",
		"min":[0.0,
		0.0],
		"count":672,
		"byteOffset":24,
		"max":[1.0,
		1.0]
	},
	{
		"bufferView":14,
		"componentType":5123,
		"type":"SCALAR",
		"min":[0],
		"count":648,
		"byteOffset":0,
		"max":[218]
	},
	{
		"bufferView":15,
		"componentType":5126,
		"type":"VEC3",
		"min":[-2469.63671875,
		-69.76447296142578,
		-3296.83544921875],
		"count":219,
		"byteOffset":0,
		"max":[2378.12841796875,
		1146.3953857421876,
		3332.240234375]
	},
	{
		"bufferView":15,
		"componentType":5126,
		"type":"VEC3",
		"min":[-0.9999688267707825,
		-1.0,
		-1.0],
		"count":219,
		"byteOffset":12,
		"max":[1.0,
		1.0,
		0.9999688267707825]
	},
	{
		"bufferView":15,
		"componentType":5126,
		"type":"VEC2",
		"min":[0.0,
		0.0],
		"count":219,
		"byteOffset":24,
		"max":[1.0,
		1.0]
	},
	{
		"bufferView":16,
		"componentType":5123,
		"type":"SCALAR",
		"min":[0],
		"count":204,
		"byteOffset":0,
		"max":[69]
	},
	{
		"bufferView":17,
		"componentType":5126,
		"type":"VEC3",
		"min":[-2502.057861328125,
		1060.0859375,
		-3107.704833984375],
		"count":70,
		"byteOffset":0,
		"max":[2415.922607421875,
		1117.505615234375,
		3388.313232421875]
	},
	{
		"bufferView":17,
		"componentType":5126,
		"type":"VEC3",
		"min":[0.0009062500321306288,
		0.0,
		-0.01190625037997961],
		"count":70,
		"byteOffset":12,
		"max":[1.0,
		0.0,
		0.9999688267707825]
	},
	{
		"bufferView":17,
		"componentType":5126,
		"type":"VEC2",
		"min":[0.001040023285895586,
		0.0],
		"count":70,
		"byteOffset":24,
		"max":[0.881986141204834,
		1.0]
	},
	{
		"bufferView":18,
		"componentType":5123,
		"type":"SCALAR",
		"min":[0],
		"count":90,
		"byteOffset":0,
		"max":[43]
	},
	{
		"bufferView":19,
		"componentType":5126,
		"type":"VEC3",
		"min":[-2411.690673828125,
		588.925537109375,
		-2157.67041015625],
		"count":44,
		"byteOffset":0,
		"max":[2317.541748046875,
		1009.4071044921875,
		3302.961669921875]
	},
	{
		"bufferView":19,
		"componentType":5126,
		"type":"VEC3",
		"min":[0.0005312500288709998,
		-0.503125011920929,
		0.0],
		"count":44,
		"byteOffset":12,
		"max":[1.0,
		0.503125011920929,
		0.9999688267707825]
	},
	{
		"bufferView":19,
		"componentType":5126,
		"type":"VEC2",
		"min":[0.021336399018764497,
		0.000020111641788389535],
		"count":44,
		"byteOffset":24,
		"max":[0.8818072080612183,
		0.8504408597946167]
	},
	{
		"bufferView":20,
		"componentType":5123,
		"type":"SCALAR",
		"min":[0],
		"count":2742,
		"byteOffset":0,
		"max":[951]
	},
	{
		"bufferView":21,
		"componentType":5126,
		"type":"VEC3",
		"min":[-2507.38134765625,
		-16.18623161315918,
		-3107.704833984375],
		"count":952,
		"byteOffset":0,
		"max":[2415.922607421875,
		1191.81298828125,
		3388.313232421875]
	},
	{
		"bufferView":21,
		"componentType":5126,
		"type":"VEC3",
		"min":[-0.9999688267707825,
		-1.0,
		-1.0],
		"count":952,
		"byteOffset":12,
		"max":[1.0,
		1.0,
		1.0]
	},
	{
		"bufferView":21,
		"componentType":5126,
		"type":"VEC2",
		"min":[0.0,
		0.0],
		"count":952,
		"byteOffset":24,
		"max":[1.0,
		1.0]
	}],
	"materials":[{
		"pbrMetallicRoughness":{
			"baseColorFactor":[0.8,
			0.8,
			0.8,
			1.0],
			"metallicFactor":0.0,
			"roughnessFactor":0.5
		},
		"emissiveFactor":[0.0,
		0.0,
		0.0],
		"alphaMode":"OPAQUE",
		"doubleSided":false,
		"name":"Mat"
	},
	{
		"pbrMetallicRoughness":{
			"baseColorFactor":[0.8,
			0.7393333333333336,
			0.5199999999999999,
			1.0],
			"metallicFactor":0.0,
			"roughnessFactor":0.5
		},
		"emissiveFactor":[0.0,
		0.0,
		0.0],
		"alphaMode":"OPAQUE",
		"doubleSided":false,
		"name":"Mat.4"
	},
	{
		"pbrMetallicRoughness":{
			"baseColorFactor":[0.2973333333333331,
			0.8,
			0.2799999999999999,
			1.0],
			"metallicFactor":0.0,
			"roughnessFactor":0.5
		},
		"emissiveFactor":[0.0,
		0.0,
		0.0],
		"alphaMode":"OPAQUE",
		"doubleSided":false,
		"name":"Mat.3"
	},
	{
		"pbrMetallicRoughness":{
			"baseColorFactor":[0.53,
			0.53,
			0.53,
			1.0],
			"metallicFactor":0.0,
			"roughnessFactor":0.5
		},
		"emissiveFactor":[0.0,
		0.0,
		0.0],
		"alphaMode":"OPAQUE",
		"doubleSided":false,
		"name":"Mat.5"
	},
	{
		"pbrMetallicRoughness":{
			"baseColorFactor":[0.2799999999999999,
			0.5140000000000001,
			0.8,
			1.0],
			"metallicFactor":0.0,
			"roughnessFactor":0.5
		},
		"emissiveFactor":[0.0,
		0.0,
		0.0],
		"alphaMode":"OPAQUE",
		"doubleSided":false,
		"name":"Mat.2"
	},
	{
		"pbrMetallicRoughness":{
			"baseColorFactor":[0.8,
			0.4,
			0.4,
			1.0],
			"metallicFactor":0.0,
			"roughnessFactor":0.5
		},
		"emissiveFactor":[0.0,
		0.0,
		0.0],
		"alphaMode":"OPAQUE",
		"doubleSided":false,
		"name":"Mat.1"
	},
	{
		"pbrMetallicRoughness":{
			"baseColorFactor":[1.0,
			1.0,
			1.0,
			0.10000002384185791],
			"metallicFactor":1.0,
			"roughnessFactor":0.05
		},
		"emissiveFactor":[0.0,
		0.0,
		0.0],
		"alphaMode":"BLEND",
		"doubleSided":false,
		"name":"Mat.6"
	}]
}